<svg id="svg" xmlns="http://www.w3.org/2000/svg" viewBox="51 35.65999984741211 200 236" height="236"><rect x="70" y="159.66" fill="none" stroke="#3794ff" stroke-width="2" width="163" height="93" rx="10" ry="10" d="M 70 169.66 a 10 10 0 0 1 10 -10 h 143 a 10 10 0 0 1 10 10 v 73 a 10 10 0 0 1 -10 10 h -143 a 10 10 0 0 1 -10 -10 Z"></rect><rect x="61" y="45.66" fill="none" stroke="#3794ff" stroke-width="2" width="180" height="216.00000000000003" d="M 61 45.66 h 180 v 216.00000000000003 h -180 Z"></rect><rect x="71" y="57.66" fill="none" stroke="#3794ff" stroke-width="2" width="161" height="92" rx="10" ry="10" d="M 71 67.66 a 10 10 0 0 1 10 -10 h 141 a 10 10 0 0 1 10 10 v 72 a 10 10 0 0 1 -10 10 h -141 a 10 10 0 0 1 -10 -10 Z"></rect><rect x="82" y="65.66" fill="none" stroke="#3794ff" stroke-width="2" width="139" height="24" rx="10" ry="10" d="M 82 75.66 a 10 10 0 0 1 10 -10 h 119 a 10 10 0 0 1 10 10 v 4 a 10 10 0 0 1 -10 10 h -119 a 10 10 0 0 1 -10 -10 Z"></rect><rect x="82" y="168.66" fill="none" stroke="#3794ff" stroke-width="2" width="140" height="22" rx="10" ry="10" d="M 79 173.66 a 10 10 0 0 1 10 -10 h 120 a 10 10 0 0 1 10 10 v 2 a 10 10 0 0 1 -10 10 h -120 a 10 10 0 0 1 -10 -10 Z"></rect><rect x="287" y="138.66" fill="rgba(240, 240,240, 0.4)" stroke="#BBB" stroke-width="1"></rect><rect x="28" y="117.66" fill="rgba(240, 240,240, 0.4)" stroke="#BBB" stroke-width="1"></rect><rect x="28" y="117.66" fill="rgba(240, 240,240, 0.4)" stroke="#BBB" stroke-width="1"></rect><rect x="308" y="165.66" fill="rgba(240, 240,240, 0.4)" stroke="#BBB" stroke-width="1"></rect><rect x="71" y="20.66" fill="rgba(240, 240,240, 0.4)" stroke="#BBB" stroke-width="1"></rect><rect x="307" y="131.66" fill="rgba(240, 240,240, 0.4)" stroke="#BBB" stroke-width="1"></rect><g id="selects"></g></svg>