<svg id="svg" xmlns="http://www.w3.org/2000/svg" viewBox="5 17.65999984741211 353 243" height="243"><rect x="15" y="69.66" fill="none" stroke="#3794ff" stroke-width="2" width="333" height="181" d="M 15 69.66 h 333 v 181 h -333 Z"></rect><rect x="19" y="75.66" fill="none" stroke="#3794ff" stroke-width="2" width="325" height="19" d="M 19 75.66 h 325 v 19 h -325 Z"></rect><rect x="21" y="102.66" fill="none" stroke="#3794ff" stroke-width="2" width="59" height="141" d="M 21 102.66 h 59 v 141 h -59 Z"></rect><rect x="300" y="102.66" fill="none" stroke="#3794ff" stroke-width="2" width="44" height="142" d="M 300 102.66 h 44 v 142 h -44 Z"></rect><rect x="86" y="102.66" fill="none" stroke="#3794ff" stroke-width="2" width="206" height="139" d="M 86 102.66 h 206 v 139 h -206 Z"></rect><text font-family="inherit" font-size="14" fill="#3794ff" x="30" y="42.66">Flexboxes Editor</text><text font-family="inherit" font-size="14" fill="#3794ff" x="47" y="84.66">Navbar</text><rect x="70" y="82.66" fill="rgba(240, 240,240, 0.4)" stroke="#BBB" stroke-width="1"></rect><rect x="51" y="68.66" fill="rgba(240, 240,240, 0.4)" stroke="#BBB" stroke-width="1" width="15" height="10"></rect><rect x="51" y="68.66" fill="rgba(240, 240,240, 0.4)" stroke="#BBB" stroke-width="1"></rect><text font-family="inherit" font-size="14" fill="#3794ff" x="38" y="163.66">Block</text><text font-family="inherit" font-size="14" fill="#3794ff" x="312" y="162.66">Right </text><text font-family="inherit" font-size="14" fill="#3794ff" x="137" y="178.66">Editor</text></svg>